<?xml version="1.0" encoding="us-ascii" standalone="no"?><svg xmlns="http://www.w3.org/2000/svg" xmlns:xlink="http://www.w3.org/1999/xlink" contentStyleType="text/css" height="578px" preserveAspectRatio="none" style="width:272px;height:578px;background:#FFFFFF;" version="1.1" viewBox="0 0 272 578" width="272px" zoomAndPan="magnify"><defs/><g><!--entity pMsg--><g id="elem_pMsg"><rect fill="#F1F1F1" height="62.5938" rx="2.5" ry="2.5" style="stroke:#181818;stroke-width:0.5;" width="132" x="67" y="480"/><path d="M111,480 L111,485 L104,492 L67,492 " fill="none" style="stroke:#181818;stroke-width:0.5;"/><text fill="#000000" font-family="sans-serif" font-size="14" lengthAdjust="spacing" textLength="68" x="82" y="512.9951">Message-</text><text fill="#000000" font-family="sans-serif" font-size="14" lengthAdjust="spacing" textLength="92" x="82" y="529.292">Dispatching()</text></g><!--entity pTxt--><g id="elem_pTxt"><rect fill="#F1F1F1" height="62.5938" rx="2.5" ry="2.5" style="stroke:#181818;stroke-width:0.5;" width="149" x="58.5" y="235"/><path d="M108.1667,235 L108.1667,240 L101.1667,247 L58.5,247 " fill="none" style="stroke:#181818;stroke-width:0.5;"/><text fill="#000000" font-family="sans-serif" font-size="14" lengthAdjust="spacing" textLength="56" x="73.5" y="267.9951">TextBox</text><text fill="#000000" font-family="sans-serif" font-size="14" lengthAdjust="spacing" textLength="109" x="73.5" y="284.292">(InputFiltering())</text></g><!--entity pUser--><g id="elem_pUser"><rect fill="#F1F1F1" height="46.2969" rx="2.5" ry="2.5" style="stroke:#181818;stroke-width:0.5;" width="72" x="97" y="7"/><path d="M121,7 L121,12 L114,19 L97,19 " fill="none" style="stroke:#181818;stroke-width:0.5;"/><text fill="#000000" font-family="sans-serif" font-size="14" lengthAdjust="spacing" textLength="32" x="112" y="39.9951">User</text></g><!--entity sTxtToUser--><g id="elem_sTxtToUser"><path d="M30,123 C30,113 77,113 77,113 C77,113 124,113 124,123 L124,164.5938 C124,174.5938 77,174.5938 77,174.5938 C77,174.5938 30,174.5938 30,164.5938 L30,123 " fill="#F1F1F1" style="stroke:#181818;stroke-width:0.5;"/><path d="M30,123 C30,133 77,133 77,133 C77,133 124,133 124,123 " fill="none" style="stroke:#181818;stroke-width:0.5;"/><text fill="#000000" font-family="sans-serif" font-size="14" lengthAdjust="spacing" textLength="57" x="40" y="149.9951">- Frame-</text><text fill="#000000" font-family="sans-serif" font-size="14" lengthAdjust="spacing" textLength="66" x="48" y="166.292">Fragment</text></g><!--entity sUserToTxt--><g id="elem_sUserToTxt"><path d="M159,131.5 C159,121.5 190,121.5 190,121.5 C190,121.5 221,121.5 221,131.5 L221,156.7969 C221,166.7969 190,166.7969 190,166.7969 C190,166.7969 159,166.7969 159,156.7969 L159,131.5 " fill="#F1F1F1" style="stroke:#181818;stroke-width:0.5;"/><path d="M159,131.5 C159,141.5 190,141.5 190,141.5 C190,141.5 221,141.5 221,131.5 " fill="none" style="stroke:#181818;stroke-width:0.5;"/><text fill="#000000" font-family="sans-serif" font-size="14" lengthAdjust="spacing" textLength="42" x="169" y="158.4951">- Keys</text></g><!--entity sCoreToTxt--><g id="elem_sCoreToTxt"><path d="M6,368 C6,358 62,358 62,358 C62,358 118,358 118,368 L118,409.5938 C118,419.5938 62,419.5938 62,419.5938 C62,419.5938 6,419.5938 6,409.5938 L6,368 " fill="#F1F1F1" style="stroke:#181818;stroke-width:0.5;"/><path d="M6,368 C6,378 62,378 62,378 C62,378 118,378 118,368 " fill="none" style="stroke:#181818;stroke-width:0.5;"/><text fill="#000000" font-family="sans-serif" font-size="14" lengthAdjust="spacing" textLength="92" x="16" y="394.9951">- currentSet()</text><text fill="#000000" font-family="sans-serif" font-size="14" lengthAdjust="spacing" textLength="58" x="16" y="411.292">- insert()</text></g><!--entity sTxtToCore--><g id="elem_sTxtToCore"><path d="M153,368 C153,358 204,358 204,358 C204,358 255,358 255,368 L255,409.5938 C255,419.5938 204,419.5938 204,419.5938 C204,419.5938 153,419.5938 153,409.5938 L153,368 " fill="#F1F1F1" style="stroke:#181818;stroke-width:0.5;"/><path d="M153,368 C153,378 204,378 204,378 C204,378 255,378 255,368 " fill="none" style="stroke:#181818;stroke-width:0.5;"/><text fill="#000000" font-family="sans-serif" font-size="14" lengthAdjust="spacing" textLength="69" x="163" y="394.9951">- current()</text><text fill="#000000" font-family="sans-serif" font-size="14" lengthAdjust="spacing" textLength="82" x="163" y="411.292">- clipboard()</text></g><!--link pUser to sUserToTxt--><g id="link_pUser_sUserToTxt"><path d="M144.26,53.13 C154.32,72.89 168.97,101.67 178.96,121.3 " fill="none" id="pUser-sUserToTxt" style="stroke:#181818;stroke-width:1.0;"/></g><!--link sUserToTxt to pTxt--><g id="link_sUserToTxt_pTxt"><path d="M179.81,166.54 C170.84,185.5 160.2456,207.8962 150.1656,229.2062 " fill="none" id="sUserToTxt-to-pTxt" style="stroke:#181818;stroke-width:1.0;"/><polygon fill="#181818" points="147.6,234.63,155.0642,228.2046,149.738,230.1101,147.8325,224.7839,147.6,234.63" style="stroke:#181818;stroke-width:1.0;"/></g><!--reverse link pUser to sTxtToUser--><g id="link_pUser_sTxtToUser"><path d="M119.2542,58.4953 C110.7042,75.5753 101.48,94.04 92.07,112.86 " fill="none" id="pUser-backto-sTxtToUser" style="stroke:#181818;stroke-width:1.0;"/><polygon fill="#181818" points="121.94,53.13,114.3344,59.3874,119.7018,57.6011,121.4882,62.9685,121.94,53.13" style="stroke:#181818;stroke-width:1.0;"/></g><!--link sTxtToUser to pTxt--><g id="link_sTxtToUser_pTxt"><path d="M90.99,175.1 C99.47,193.36 110.28,216.6 118.8,234.95 " fill="none" id="sTxtToUser-pTxt" style="stroke:#181818;stroke-width:1.0;"/></g><!--link pTxt to sTxtToCore--><g id="link_pTxt_sTxtToCore"><path d="M151.1,298.22 C161.86,316.49 175.46,339.57 186.18,357.75 " fill="none" id="pTxt-sTxtToCore" style="stroke:#181818;stroke-width:1.0;"/></g><!--link sTxtToCore to pMsg--><g id="link_sTxtToCore_pMsg"><path d="M186.27,420.1 C175.51,438.36 164.8554,456.4304 154.0454,474.7804 " fill="none" id="sTxtToCore-to-pMsg" style="stroke:#181818;stroke-width:1.0;"/><polygon fill="#181818" points="151,479.95,159.0146,474.2258,153.5379,475.642,152.1217,470.1652,151,479.95" style="stroke:#181818;stroke-width:1.0;"/></g><!--reverse link pTxt to sCoreToTxt--><g id="link_pTxt_sCoreToTxt"><path d="M111.8552,303.39 C101.0952,321.66 90.54,339.57 79.82,357.75 " fill="none" id="pTxt-backto-sCoreToTxt" style="stroke:#181818;stroke-width:1.0;"/><polygon fill="#181818" points="114.9,298.22,106.8861,303.9451,112.3626,302.5283,113.7794,308.0049,114.9,298.22" style="stroke:#181818;stroke-width:1.0;"/></g><!--link sCoreToTxt to pMsg--><g id="link_sCoreToTxt_pMsg"><path d="M79.73,420.1 C90.49,438.36 104.19,461.6 115,479.95 " fill="none" id="sCoreToTxt-pMsg" style="stroke:#181818;stroke-width:1.0;"/></g><text fill="#888888" font-family="sans-serif" font-size="10" font-weight="bold" lengthAdjust="spacing" textLength="47" x="24.5" y="556.876">TextBox</text><text fill="#888888" font-family="sans-serif" font-size="10" lengthAdjust="spacing" textLength="159" x="74.5" y="556.876">System Core and User Interface</text><text fill="#888888" font-family="sans-serif" font-size="10" lengthAdjust="spacing" textLength="167" x="45.5" y="568.5166">(C) DSP-Crowd Electronics GmbH</text><!--SRC=[RP5DReCm48NtFiKetG0IDwYwA6dQg8fK2RfZOyn0h82DF4Objwz_GAHIMJqnttipuw6RL1CtV8I6YrjlzApQGW_Qm5CNFiOwLqKuN928zvZNwYXfubPSfUgJz02SOBfGlt4LBlPLBxLApcgQxKaE5ar0LxPQxCP-4vhuqol6McvvmybLSZXvn7K3h_eHbGqaENkb0_v8V-ATOjsNAksR_074R8pBAD4cQQroaCfnTfsV2cqmclxnH8COvDHeRjhD4mRnHiR2-93dZzrtwGelSUqLVFRaliSkVSGAHjzZbrt6GF_caGjv-mgx37c1wxHsPu0iMy-JPL3UoU888P2h5i80P-MmZWjqzojIE9PVUM7qJmjl0mfhj9A2u7riFjWl]--></g></svg>