<?xml version="1.0" encoding="us-ascii" standalone="no"?><svg xmlns="http://www.w3.org/2000/svg" xmlns:xlink="http://www.w3.org/1999/xlink" contentStyleType="text/css" height="854px" preserveAspectRatio="none" style="width:660px;height:854px;background:#FFFFFF;" version="1.1" viewBox="0 0 660 854" width="660px" zoomAndPan="magnify"><defs/><g><!--cluster pSrv--><g id="cluster_pSrv"><rect fill="none" height="635" rx="2.5" ry="2.5" style="stroke:#181818;stroke-width:1.0;" width="647" x="7" y="183"/><path d="M126,183 L126,192.2969 L116,202.2969 L7,202.2969 " fill="none" style="stroke:#181818;stroke-width:1.0;"/><text fill="#000000" font-family="sans-serif" font-size="14" font-weight="bold" lengthAdjust="spacing" textLength="109" x="10" y="196.9951">UserServing()</text></g><!--entity pTn--><g id="elem_pTn"><rect fill="#F1F1F1" height="46.2969" rx="2.5" ry="2.5" style="stroke:#181818;stroke-width:0.5;" width="129" x="325.5" y="218"/><path d="M368.5,218 L368.5,223 L361.5,230 L325.5,230 " fill="none" style="stroke:#181818;stroke-width:0.5;"/><text fill="#000000" font-family="sans-serif" font-size="14" lengthAdjust="spacing" textLength="89" x="340.5" y="250.9951">KeyFiltering()</text></g><!--entity pCore--><g id="elem_pCore"><rect fill="#F1F1F1" height="62.5938" rx="2.5" ry="2.5" style="stroke:#181818;stroke-width:0.5;" width="132" x="325" y="462"/><path d="M369,462 L369,467 L362,474 L325,474 " fill="none" style="stroke:#181818;stroke-width:0.5;"/><text fill="#000000" font-family="sans-serif" font-size="14" lengthAdjust="spacing" textLength="68" x="340" y="494.9951">Message-</text><text fill="#000000" font-family="sans-serif" font-size="14" lengthAdjust="spacing" textLength="92" x="340" y="511.292">Dispatching()</text></g><!--entity pTxt--><g id="elem_pTxt"><rect fill="#F1F1F1" height="62.5938" rx="2.5" ry="2.5" style="stroke:#181818;stroke-width:0.5;" width="149" x="316.5" y="739"/><path d="M366.1667,739 L366.1667,744 L359.1667,751 L316.5,751 " fill="none" style="stroke:#181818;stroke-width:0.5;"/><text fill="#000000" font-family="sans-serif" font-size="14" lengthAdjust="spacing" textLength="56" x="331.5" y="771.9951">TextBox</text><text fill="#000000" font-family="sans-serif" font-size="14" lengthAdjust="spacing" textLength="109" x="331.5" y="788.292">(InputFiltering())</text></g><!--entity sCoreToTn--><g id="elem_sCoreToTn"><path d="M284,350.5 C284,340.5 324,340.5 324,340.5 C324,340.5 364,340.5 364,350.5 L364,375.7969 C364,385.7969 324,385.7969 324,385.7969 C324,385.7969 284,385.7969 284,375.7969 L284,350.5 " fill="#F1F1F1" style="stroke:#181818;stroke-width:0.5;"/><path d="M284,350.5 C284,360.5 324,360.5 324,360.5 C324,360.5 364,360.5 364,350.5 " fill="none" style="stroke:#181818;stroke-width:0.5;"/><text fill="#000000" font-family="sans-serif" font-size="14" lengthAdjust="spacing" textLength="60" x="294" y="377.4951">- Frames</text></g><!--entity sTnToCore--><g id="elem_sTnToCore"><path d="M399.5,334 C399.5,324 457,324 457,324 C457,324 514.5,324 514.5,334 L514.5,391.8906 C514.5,401.8906 457,401.8906 457,401.8906 C457,401.8906 399.5,401.8906 399.5,391.8906 L399.5,334 " fill="#F1F1F1" style="stroke:#181818;stroke-width:0.5;"/><path d="M399.5,334 C399.5,344 457,344 457,344 C457,344 514.5,344 514.5,334 " fill="none" style="stroke:#181818;stroke-width:0.5;"/><text fill="#000000" font-family="sans-serif" font-size="14" lengthAdjust="spacing" textLength="42" x="409.5" y="360.9951">- Keys</text><text fill="#000000" font-family="sans-serif" font-size="14" lengthAdjust="spacing" textLength="87" x="417.5" y="377.292">- Printable or</text><text fill="#000000" font-family="sans-serif" font-size="14" lengthAdjust="spacing" textLength="59" x="417.5" y="393.5889">- Control</text></g><!--entity sMsgClipboard--><g id="elem_sMsgClipboard"><path d="M204.5,481 C204.5,471 247,471 247,471 C247,471 289.5,471 289.5,481 L289.5,506.2969 C289.5,516.2969 247,516.2969 247,516.2969 C247,516.2969 204.5,516.2969 204.5,506.2969 L204.5,481 " fill="#F1F1F1" style="stroke:#181818;stroke-width:0.5;"/><path d="M204.5,481 C204.5,491 247,491 247,491 C247,491 289.5,491 289.5,481 " fill="none" style="stroke:#181818;stroke-width:0.5;"/><text fill="#000000" font-family="sans-serif" font-size="14" lengthAdjust="spacing" textLength="65" x="214.5" y="507.9951">Clipboard</text></g><!--entity sDummy1--><g id="elem_sDummy1"><rect fill="#FFFFFF" height="36.2969" rx="2.5" ry="2.5" style="stroke:#FFFFFF;stroke-width:0.5;" width="146" x="23" y="475.5"/><text fill="#FFFFFF" font-family="sans-serif" font-size="14" lengthAdjust="spacing" textLength="126" x="33" y="498.4951">xxxxxxxxxxxxxxxxxx</text></g><!--entity sDummy2--><g id="elem_sDummy2"><rect fill="#FFFFFF" height="36.2969" rx="2.5" ry="2.5" style="stroke:#FFFFFF;stroke-width:0.5;" width="146" x="492" y="475.5"/><text fill="#FFFFFF" font-family="sans-serif" font-size="14" lengthAdjust="spacing" textLength="126" x="502" y="498.4951">xxxxxxxxxxxxxxxxxx</text></g><!--entity sTxtToCore--><g id="elem_sTxtToCore"><path d="M269,595 C269,585 320,585 320,585 C320,585 371,585 371,595 L371,669.1875 C371,679.1875 320,679.1875 320,679.1875 C320,679.1875 269,679.1875 269,669.1875 L269,595 " fill="#F1F1F1" style="stroke:#181818;stroke-width:0.5;"/><path d="M269,595 C269,605 320,605 320,605 C320,605 371,605 371,595 " fill="none" style="stroke:#181818;stroke-width:0.5;"/><text fill="#000000" font-family="sans-serif" font-size="14" lengthAdjust="spacing" textLength="57" x="279" y="621.9951">- Frame-</text><text fill="#000000" font-family="sans-serif" font-size="14" lengthAdjust="spacing" textLength="74" x="287" y="638.292">Fragments</text><text fill="#000000" font-family="sans-serif" font-size="14" lengthAdjust="spacing" textLength="69" x="279" y="654.5889">- current()</text><text fill="#000000" font-family="sans-serif" font-size="14" lengthAdjust="spacing" textLength="82" x="279" y="670.8857">- clipboard()</text></g><!--entity sCoreToTxt--><g id="elem_sCoreToTxt"><path d="M406,595 C406,585 462,585 462,585 C462,585 518,585 518,595 L518,669.1875 C518,679.1875 462,679.1875 462,679.1875 C462,679.1875 406,679.1875 406,669.1875 L406,595 " fill="#F1F1F1" style="stroke:#181818;stroke-width:0.5;"/><path d="M406,595 C406,605 462,605 462,605 C462,605 518,605 518,595 " fill="none" style="stroke:#181818;stroke-width:0.5;"/><text fill="#000000" font-family="sans-serif" font-size="14" lengthAdjust="spacing" textLength="42" x="416" y="621.9951">- Keys</text><text fill="#000000" font-family="sans-serif" font-size="14" lengthAdjust="spacing" textLength="4" x="416" y="638.292">&#160;</text><text fill="#000000" font-family="sans-serif" font-size="14" lengthAdjust="spacing" textLength="92" x="416" y="654.5889">- currentSet()</text><text fill="#000000" font-family="sans-serif" font-size="14" lengthAdjust="spacing" textLength="58" x="416" y="670.8857">- paste()</text></g><!--entity pUser--><g id="elem_pUser"><rect fill="#F1F1F1" height="46.2969" rx="2.5" ry="2.5" style="stroke:#181818;stroke-width:0.5;" width="72" x="354" y="7"/><path d="M378,7 L378,12 L371,19 L354,19 " fill="none" style="stroke:#181818;stroke-width:0.5;"/><text fill="#000000" font-family="sans-serif" font-size="14" lengthAdjust="spacing" textLength="32" x="369" y="39.9951">User</text></g><!--entity sTnToUser--><g id="elem_sTnToUser"><path d="M298,123 C298,113 338,113 338,113 C338,113 378,113 378,123 L378,148.2969 C378,158.2969 338,158.2969 338,158.2969 C338,158.2969 298,158.2969 298,148.2969 L298,123 " fill="#F1F1F1" style="stroke:#181818;stroke-width:0.5;"/><path d="M298,123 C298,133 338,133 338,133 C338,133 378,133 378,123 " fill="none" style="stroke:#181818;stroke-width:0.5;"/><text fill="#000000" font-family="sans-serif" font-size="14" lengthAdjust="spacing" textLength="60" x="308" y="149.9951">- Frames</text></g><!--entity sUserToTn--><g id="elem_sUserToTn"><path d="M413.5,123 C413.5,113 443,113 443,113 C443,113 472.5,113 472.5,123 L472.5,148.2969 C472.5,158.2969 443,158.2969 443,158.2969 C443,158.2969 413.5,158.2969 413.5,148.2969 L413.5,123 " fill="#F1F1F1" style="stroke:#181818;stroke-width:0.5;"/><path d="M413.5,123 C413.5,133 443,133 443,133 C443,133 472.5,133 472.5,123 " fill="none" style="stroke:#181818;stroke-width:0.5;"/><text fill="#000000" font-family="sans-serif" font-size="14" lengthAdjust="spacing" textLength="39" x="423.5" y="149.9951">Bytes</text></g><!--link pUser to sUserToTn--><g id="link_pUser_sUserToTn"><path d="M401.37,53.2 C410.37,70.79 422.88,95.21 431.83,112.69 " fill="none" id="pUser-sUserToTn" style="stroke:#181818;stroke-width:1.0;"/></g><!--link sUserToTn to pTn--><g id="link_sUserToTn_pTn"><path d="M431.89,158.2 C422.9,175.74 413.044,194.9991 404.014,212.6391 " fill="none" id="sUserToTn-to-pTn" style="stroke:#181818;stroke-width:1.0;"/><polygon fill="#181818" points="401.28,217.98,408.9416,211.7914,403.5584,213.5293,401.8204,208.146,401.28,217.98" style="stroke:#181818;stroke-width:1.0;"/></g><!--reverse link pUser to sTnToUser--><g id="link_pUser_sTnToUser"><path d="M376.1482,58.5623 C367.3182,76.1523 357.74,95.21 348.96,112.69 " fill="none" id="pUser-backto-sTnToUser" style="stroke:#181818;stroke-width:1.0;"/><polygon fill="#181818" points="378.84,53.2,371.2274,59.4489,376.5968,57.6686,378.3771,63.038,378.84,53.2" style="stroke:#181818;stroke-width:1.0;"/></g><!--link sTnToUser to pTn--><g id="link_sTnToUser_pTn"><path d="M348.9,158.2 C357.72,175.74 370.08,200.34 378.93,217.98 " fill="none" id="sTnToUser-pTn" style="stroke:#181818;stroke-width:1.0;"/></g><!--link pTn to sTnToCore--><g id="link_pTn_sTnToCore"><path d="M402.29,264.01 C411.58,280.65 424.58,303.93 435.57,323.61 " fill="none" id="pTn-sTnToCore" style="stroke:#181818;stroke-width:1.0;"/></g><!--link sTnToCore to pCore--><g id="link_sTnToCore_pCore"><path d="M437.38,402.21 C427.57,421.29 418.6104,438.7324 409.4204,456.6324 " fill="none" id="sTnToCore-to-pCore" style="stroke:#181818;stroke-width:1.0;"/><polygon fill="#181818" points="406.68,461.97,414.349,455.7905,408.9637,457.522,407.2322,452.1366,406.68,461.97" style="stroke:#181818;stroke-width:1.0;"/></g><!--reverse link pTn to sCoreToTn--><g id="link_pTn_sCoreToTn"><path d="M374.9999,269.2681 C363.0999,290.9181 347.91,318.53 336.03,340.13 " fill="none" id="pTn-backto-sCoreToTn" style="stroke:#181818;stroke-width:1.0;"/><polygon fill="#181818" points="377.89,264.01,370.0495,269.9704,375.4816,268.3917,377.0602,273.8238,377.89,264.01" style="stroke:#181818;stroke-width:1.0;"/></g><!--link sCoreToTn to pCore--><g id="link_sCoreToTn_pCore"><path d="M335.21,385.51 C346.09,406.37 362.71,438.24 374.98,461.77 " fill="none" id="sCoreToTn-pCore" style="stroke:#181818;stroke-width:1.0;"/></g><!--link sDummy1 to sMsgClipboard--><!--link sMsgClipboard to pCore--><g id="link_sMsgClipboard_pCore"><path d="M295.75,493.5 C307.48,493.5 307.22,493.5 318.95,493.5 " fill="none" id="sMsgClipboard-pCore" style="stroke:#181818;stroke-width:1.0;"/><polygon fill="#181818" points="289.75,493.5,298.75,497.5,294.75,493.5,298.75,489.5,289.75,493.5" style="stroke:#181818;stroke-width:1.0;"/><polygon fill="#181818" points="324.95,493.5,315.95,489.5,319.95,493.5,315.95,497.5,324.95,493.5" style="stroke:#181818;stroke-width:1.0;"/></g><!--link pCore to sDummy2--><!--link pCore to sCoreToTxt--><g id="link_pCore_sCoreToTxt"><path d="M406.93,525.13 C416.09,542.74 427.78,565.2 438.02,584.91 " fill="none" id="pCore-sCoreToTxt" style="stroke:#181818;stroke-width:1.0;"/></g><!--link sCoreToTxt to pTxt--><g id="link_sCoreToTxt_pTxt"><path d="M437.96,679.21 C427.74,698.86 418.8802,715.9078 409.7402,733.4678 " fill="none" id="sCoreToTxt-to-pTxt" style="stroke:#181818;stroke-width:1.0;"/><polygon fill="#181818" points="406.97,738.79,414.6735,732.6535,409.2785,734.3548,407.5772,728.9599,406.97,738.79" style="stroke:#181818;stroke-width:1.0;"/></g><!--reverse link pCore to sTxtToCore--><g id="link_pCore_sTxtToCore"><path d="M372.3012,530.453 C363.1412,548.063 354.22,565.2 343.98,584.91 " fill="none" id="pCore-backto-sTxtToCore" style="stroke:#181818;stroke-width:1.0;"/><polygon fill="#181818" points="375.07,525.13,367.3682,531.2686,372.7627,529.5658,374.4655,534.9603,375.07,525.13" style="stroke:#181818;stroke-width:1.0;"/></g><!--link sTxtToCore to pTxt--><g id="link_sTxtToCore_pTxt"><path d="M344.04,679.21 C354.26,698.86 365.89,721.23 375.03,738.79 " fill="none" id="sTxtToCore-pTxt" style="stroke:#181818;stroke-width:1.0;"/></g><text fill="#888888" font-family="sans-serif" font-size="10" font-weight="bold" lengthAdjust="spacing" textLength="47" x="218.5" y="832.2822">TextBox</text><text fill="#888888" font-family="sans-serif" font-size="10" lengthAdjust="spacing" textLength="159" x="268.5" y="832.2822">System Core and User Interface</text><text fill="#888888" font-family="sans-serif" font-size="10" lengthAdjust="spacing" textLength="167" x="239.5" y="843.9229">(C) DSP-Crowd Electronics GmbH</text><!--SRC=[ZLB1Rjim33r7Nq6aboI03kkvs27EiXL5WGBsiCEoWs8hZb5RCYYbIp3qtqT9jYAt7J2VgCV7P_AHvhbHlK3HmLwKppNgaweotMg4cuF_c8cCFso6ihH2rQrqZzdwJScFOsEbmpLM4gVOLYixGLxPAsC7qfKm_suapa4Ow5t4M2Mis0j36GvRHp4-QmfLQC-u4jONEsPTfj25ciZc4byQLI-MGJ_75sgTpGR6WxniczPAJ2WaCAOVfJ6YbdodDetfXIsF2I_JA2Epa6UxrkUTMjoh_cGJqL7rREct_nhCQVdM9mpgpkmK08SdqYASVDSOa8pyHDrUVV7jfFLPs_HxBR0Ad4TJHoHTvFpyxWi5crFNNJxzF_Nse_cuwvQYkfFAqZ0SoXCYnOkbVumT3QOQicaOvGCdal9S3WgzC5QErOEDP3NTbhybu3mvZ1WH_DblEf3k72iULunSiIEntbSaFiSe27dCaRnGN6QCl51Oq60hSFnvRAfAgb_ypMucBrAC-k5_QTte-v3YgGFNS1YMiC0BqqQZhs6OrntgGMkwNrYjXhjUhI2_aD4TU9vG5NY3xXNH3gAKTFZP4ZRv4yzG_wxWIqjNWrerfO6ltVuR-mi0]--></g></svg>