<?xml version="1.0" encoding="us-ascii" standalone="no"?><svg xmlns="http://www.w3.org/2000/svg" xmlns:xlink="http://www.w3.org/1999/xlink" contentStyleType="text/css" height="837px" preserveAspectRatio="none" style="width:336px;height:837px;background:#FFFFFF;" version="1.1" viewBox="0 0 336 837" width="336px" zoomAndPan="magnify"><defs/><g><!--entity pUser--><g id="elem_pUser"><rect fill="#F1F1F1" height="46.2969" rx="2.5" ry="2.5" style="stroke:#181818;stroke-width:0.5;" width="72" x="155.5" y="7"/><path d="M179.5,7 L179.5,12 L172.5,19 L155.5,19 " fill="none" style="stroke:#181818;stroke-width:0.5;"/><text fill="#000000" font-family="sans-serif" font-size="14" lengthAdjust="spacing" textLength="32" x="170.5" y="39.9951">User</text></g><!--entity pTn--><g id="elem_pTn"><rect fill="#F1F1F1" height="46.2969" rx="2.5" ry="2.5" style="stroke:#181818;stroke-width:0.5;" width="129" x="127" y="218"/><path d="M170,218 L170,223 L163,230 L127,230 " fill="none" style="stroke:#181818;stroke-width:0.5;"/><text fill="#000000" font-family="sans-serif" font-size="14" lengthAdjust="spacing" textLength="89" x="142" y="250.9951">KeyFiltering()</text></g><!--entity pCore--><g id="elem_pCore"><rect fill="#F1F1F1" height="62.5938" rx="2.5" ry="2.5" style="stroke:#181818;stroke-width:0.5;" width="132" x="126.5" y="462"/><path d="M170.5,462 L170.5,467 L163.5,474 L126.5,474 " fill="none" style="stroke:#181818;stroke-width:0.5;"/><text fill="#000000" font-family="sans-serif" font-size="14" lengthAdjust="spacing" textLength="68" x="141.5" y="494.9951">Message-</text><text fill="#000000" font-family="sans-serif" font-size="14" lengthAdjust="spacing" textLength="92" x="141.5" y="511.292">Dispatching()</text></g><!--entity pTxt--><g id="elem_pTxt"><rect fill="#F1F1F1" height="62.5938" rx="2.5" ry="2.5" style="stroke:#181818;stroke-width:0.5;" width="149" x="118" y="739"/><path d="M167.6667,739 L167.6667,744 L160.6667,751 L118,751 " fill="none" style="stroke:#181818;stroke-width:0.5;"/><text fill="#000000" font-family="sans-serif" font-size="14" lengthAdjust="spacing" textLength="56" x="133" y="771.9951">TextBox</text><text fill="#000000" font-family="sans-serif" font-size="14" lengthAdjust="spacing" textLength="109" x="133" y="788.292">(InputFiltering())</text></g><!--entity sTnToUser--><g id="elem_sTnToUser"><path d="M99.5,123 C99.5,113 139.5,113 139.5,113 C139.5,113 179.5,113 179.5,123 L179.5,148.2969 C179.5,158.2969 139.5,158.2969 139.5,158.2969 C139.5,158.2969 99.5,158.2969 99.5,148.2969 L99.5,123 " fill="#F1F1F1" style="stroke:#181818;stroke-width:0.5;"/><path d="M99.5,123 C99.5,133 139.5,133 139.5,133 C139.5,133 179.5,133 179.5,123 " fill="none" style="stroke:#181818;stroke-width:0.5;"/><text fill="#000000" font-family="sans-serif" font-size="14" lengthAdjust="spacing" textLength="60" x="109.5" y="149.9951">- Frames</text></g><!--entity sUserToTn--><g id="elem_sUserToTn"><path d="M215,123 C215,113 244.5,113 244.5,113 C244.5,113 274,113 274,123 L274,148.2969 C274,158.2969 244.5,158.2969 244.5,158.2969 C244.5,158.2969 215,158.2969 215,148.2969 L215,123 " fill="#F1F1F1" style="stroke:#181818;stroke-width:0.5;"/><path d="M215,123 C215,133 244.5,133 244.5,133 C244.5,133 274,133 274,123 " fill="none" style="stroke:#181818;stroke-width:0.5;"/><text fill="#000000" font-family="sans-serif" font-size="14" lengthAdjust="spacing" textLength="39" x="225" y="149.9951">Bytes</text></g><!--entity sCoreToTn--><g id="elem_sCoreToTn"><path d="M85.5,350.5 C85.5,340.5 125.5,340.5 125.5,340.5 C125.5,340.5 165.5,340.5 165.5,350.5 L165.5,375.7969 C165.5,385.7969 125.5,385.7969 125.5,385.7969 C125.5,385.7969 85.5,385.7969 85.5,375.7969 L85.5,350.5 " fill="#F1F1F1" style="stroke:#181818;stroke-width:0.5;"/><path d="M85.5,350.5 C85.5,360.5 125.5,360.5 125.5,360.5 C125.5,360.5 165.5,360.5 165.5,350.5 " fill="none" style="stroke:#181818;stroke-width:0.5;"/><text fill="#000000" font-family="sans-serif" font-size="14" lengthAdjust="spacing" textLength="60" x="95.5" y="377.4951">- Frames</text></g><!--entity sTnToCore--><g id="elem_sTnToCore"><path d="M201,334 C201,324 258.5,324 258.5,324 C258.5,324 316,324 316,334 L316,391.8906 C316,401.8906 258.5,401.8906 258.5,401.8906 C258.5,401.8906 201,401.8906 201,391.8906 L201,334 " fill="#F1F1F1" style="stroke:#181818;stroke-width:0.5;"/><path d="M201,334 C201,344 258.5,344 258.5,344 C258.5,344 316,344 316,334 " fill="none" style="stroke:#181818;stroke-width:0.5;"/><text fill="#000000" font-family="sans-serif" font-size="14" lengthAdjust="spacing" textLength="42" x="211" y="360.9951">- Keys</text><text fill="#000000" font-family="sans-serif" font-size="14" lengthAdjust="spacing" textLength="87" x="219" y="377.292">- Printable or</text><text fill="#000000" font-family="sans-serif" font-size="14" lengthAdjust="spacing" textLength="59" x="219" y="393.5889">- Control</text></g><!--entity sMsgClipboard--><g id="elem_sMsgClipboard"><path d="M6,481 C6,471 48.5,471 48.5,471 C48.5,471 91,471 91,481 L91,506.2969 C91,516.2969 48.5,516.2969 48.5,516.2969 C48.5,516.2969 6,516.2969 6,506.2969 L6,481 " fill="#F1F1F1" style="stroke:#181818;stroke-width:0.5;"/><path d="M6,481 C6,491 48.5,491 48.5,491 C48.5,491 91,491 91,481 " fill="none" style="stroke:#181818;stroke-width:0.5;"/><text fill="#000000" font-family="sans-serif" font-size="14" lengthAdjust="spacing" textLength="65" x="16" y="507.9951">Clipboard</text></g><!--entity sTxtToCore--><g id="elem_sTxtToCore"><path d="M70.5,595 C70.5,585 121.5,585 121.5,585 C121.5,585 172.5,585 172.5,595 L172.5,669.1875 C172.5,679.1875 121.5,679.1875 121.5,679.1875 C121.5,679.1875 70.5,679.1875 70.5,669.1875 L70.5,595 " fill="#F1F1F1" style="stroke:#181818;stroke-width:0.5;"/><path d="M70.5,595 C70.5,605 121.5,605 121.5,605 C121.5,605 172.5,605 172.5,595 " fill="none" style="stroke:#181818;stroke-width:0.5;"/><text fill="#000000" font-family="sans-serif" font-size="14" lengthAdjust="spacing" textLength="57" x="80.5" y="621.9951">- Frame-</text><text fill="#000000" font-family="sans-serif" font-size="14" lengthAdjust="spacing" textLength="74" x="88.5" y="638.292">Fragments</text><text fill="#000000" font-family="sans-serif" font-size="14" lengthAdjust="spacing" textLength="69" x="80.5" y="654.5889">- current()</text><text fill="#000000" font-family="sans-serif" font-size="14" lengthAdjust="spacing" textLength="82" x="80.5" y="670.8857">- clipboard()</text></g><!--entity sCoreToTxt--><g id="elem_sCoreToTxt"><path d="M207.5,595 C207.5,585 263.5,585 263.5,585 C263.5,585 319.5,585 319.5,595 L319.5,669.1875 C319.5,679.1875 263.5,679.1875 263.5,679.1875 C263.5,679.1875 207.5,679.1875 207.5,669.1875 L207.5,595 " fill="#F1F1F1" style="stroke:#181818;stroke-width:0.5;"/><path d="M207.5,595 C207.5,605 263.5,605 263.5,605 C263.5,605 319.5,605 319.5,595 " fill="none" style="stroke:#181818;stroke-width:0.5;"/><text fill="#000000" font-family="sans-serif" font-size="14" lengthAdjust="spacing" textLength="42" x="217.5" y="621.9951">- Keys</text><text fill="#000000" font-family="sans-serif" font-size="14" lengthAdjust="spacing" textLength="4" x="217.5" y="638.292">&#160;</text><text fill="#000000" font-family="sans-serif" font-size="14" lengthAdjust="spacing" textLength="92" x="217.5" y="654.5889">- currentSet()</text><text fill="#000000" font-family="sans-serif" font-size="14" lengthAdjust="spacing" textLength="58" x="217.5" y="670.8857">- paste()</text></g><!--link pUser to sUserToTn--><g id="link_pUser_sUserToTn"><path d="M202.87,53.2 C211.87,70.79 224.38,95.21 233.33,112.69 " fill="none" id="pUser-sUserToTn" style="stroke:#181818;stroke-width:1.0;"/></g><!--link sUserToTn to pTn--><g id="link_sUserToTn_pTn"><path d="M233.39,158.2 C224.4,175.74 214.544,194.9991 205.514,212.6391 " fill="none" id="sUserToTn-to-pTn" style="stroke:#181818;stroke-width:1.0;"/><polygon fill="#181818" points="202.78,217.98,210.4416,211.7914,205.0584,213.5293,203.3204,208.146,202.78,217.98" style="stroke:#181818;stroke-width:1.0;"/></g><!--reverse link pUser to sTnToUser--><g id="link_pUser_sTnToUser"><path d="M177.6482,58.5623 C168.8182,76.1523 159.24,95.21 150.46,112.69 " fill="none" id="pUser-backto-sTnToUser" style="stroke:#181818;stroke-width:1.0;"/><polygon fill="#181818" points="180.34,53.2,172.7274,59.4489,178.0968,57.6686,179.8771,63.038,180.34,53.2" style="stroke:#181818;stroke-width:1.0;"/></g><!--link sTnToUser to pTn--><g id="link_sTnToUser_pTn"><path d="M150.4,158.2 C159.22,175.74 171.58,200.34 180.43,217.98 " fill="none" id="sTnToUser-pTn" style="stroke:#181818;stroke-width:1.0;"/></g><!--link pTn to sTnToCore--><g id="link_pTn_sTnToCore"><path d="M203.79,264.01 C213.08,280.65 226.08,303.93 237.07,323.61 " fill="none" id="pTn-sTnToCore" style="stroke:#181818;stroke-width:1.0;"/></g><!--link sTnToCore to pCore--><g id="link_sTnToCore_pCore"><path d="M238.88,402.21 C229.07,421.29 220.1104,438.7324 210.9204,456.6324 " fill="none" id="sTnToCore-to-pCore" style="stroke:#181818;stroke-width:1.0;"/><polygon fill="#181818" points="208.18,461.97,215.849,455.7905,210.4637,457.522,208.7322,452.1366,208.18,461.97" style="stroke:#181818;stroke-width:1.0;"/></g><!--reverse link pTn to sCoreToTn--><g id="link_pTn_sCoreToTn"><path d="M176.4999,269.2681 C164.5999,290.9181 149.41,318.53 137.53,340.13 " fill="none" id="pTn-backto-sCoreToTn" style="stroke:#181818;stroke-width:1.0;"/><polygon fill="#181818" points="179.39,264.01,171.5495,269.9704,176.9816,268.3917,178.5602,273.8238,179.39,264.01" style="stroke:#181818;stroke-width:1.0;"/></g><!--link sCoreToTn to pCore--><g id="link_sCoreToTn_pCore"><path d="M136.71,385.51 C147.59,406.37 164.21,438.24 176.48,461.77 " fill="none" id="sCoreToTn-pCore" style="stroke:#181818;stroke-width:1.0;"/></g><!--link sMsgClipboard to pCore--><g id="link_sMsgClipboard_pCore"><path d="M97.25,493.5 C108.98,493.5 108.72,493.5 120.45,493.5 " fill="none" id="sMsgClipboard-pCore" style="stroke:#181818;stroke-width:1.0;"/><polygon fill="#181818" points="91.25,493.5,100.25,497.5,96.25,493.5,100.25,489.5,91.25,493.5" style="stroke:#181818;stroke-width:1.0;"/><polygon fill="#181818" points="126.45,493.5,117.45,489.5,121.45,493.5,117.45,497.5,126.45,493.5" style="stroke:#181818;stroke-width:1.0;"/></g><!--link pCore to sCoreToTxt--><g id="link_pCore_sCoreToTxt"><path d="M208.43,525.13 C217.59,542.74 229.28,565.2 239.52,584.91 " fill="none" id="pCore-sCoreToTxt" style="stroke:#181818;stroke-width:1.0;"/></g><!--link sCoreToTxt to pTxt--><g id="link_sCoreToTxt_pTxt"><path d="M239.46,679.21 C229.24,698.86 220.3802,715.9078 211.2402,733.4678 " fill="none" id="sCoreToTxt-to-pTxt" style="stroke:#181818;stroke-width:1.0;"/><polygon fill="#181818" points="208.47,738.79,216.1735,732.6535,210.7785,734.3548,209.0772,728.9599,208.47,738.79" style="stroke:#181818;stroke-width:1.0;"/></g><!--reverse link pCore to sTxtToCore--><g id="link_pCore_sTxtToCore"><path d="M173.8012,530.453 C164.6412,548.063 155.72,565.2 145.48,584.91 " fill="none" id="pCore-backto-sTxtToCore" style="stroke:#181818;stroke-width:1.0;"/><polygon fill="#181818" points="176.57,525.13,168.8682,531.2686,174.2627,529.5658,175.9655,534.9603,176.57,525.13" style="stroke:#181818;stroke-width:1.0;"/></g><!--link sTxtToCore to pTxt--><g id="link_sTxtToCore_pTxt"><path d="M145.54,679.21 C155.76,698.86 167.39,721.23 176.53,738.79 " fill="none" id="sTxtToCore-pTxt" style="stroke:#181818;stroke-width:1.0;"/></g><text fill="#888888" font-family="sans-serif" font-size="10" font-weight="bold" lengthAdjust="spacing" textLength="47" x="56.75" y="815.876">TextBox</text><text fill="#888888" font-family="sans-serif" font-size="10" lengthAdjust="spacing" textLength="159" x="106.75" y="815.876">System Core and User Interface</text><text fill="#888888" font-family="sans-serif" font-size="10" lengthAdjust="spacing" textLength="167" x="77.75" y="827.5166">(C) DSP-Crowd Electronics GmbH</text><!--SRC=[TLBBJiCm4BpdArPmQIFv3n27fXGgLAbImwqN9t52rCIsR5UqVy_w6ICWfydkp7fsR7qPkQIApj3GzZ8eSULT9IQXuB5tNr7qs6NmyA6PUW2gGLeKg-_ilXidmzJ8XzNQzsiUkmUcDHqOEVFjg2KrxMT6guHYaLYpczc8svclzbnUJJOophoPekYeeGtLo2UmiqBjchhcjN2c5iBcRcBNTcg1flxLMoUEaHDmCttc00IEw0Jh4mEXVAKIt2WnBQUxNJ9vDOso4LHrddBGGwhyOOFOgOY6cN63Xn9ehqeXNgtTJvI6v3I64OxyRJXJdrWO8AasB8h3iZPFTvD0I9PHGbX-TbVfIK-MbN9Eo8ejgP1EaOMHa1_aQfRa1gN04tA3V8e_qa9-L1SoZCjtM60mZ3NFyuvJKWlqdkt-lH3upA0im_ChIpZTCQeP78_o3joIUuwqdhOCtsUrXktfI2eblZfucLYB3u6FhORNkNahlW40]--></g></svg>