<?xml version="1.0" encoding="us-ascii" standalone="no"?><svg xmlns="http://www.w3.org/2000/svg" xmlns:xlink="http://www.w3.org/1999/xlink" contentStyleType="text/css" height="835px" preserveAspectRatio="none" style="width:879px;height:835px;background:#FFFFFF;" version="1.1" viewBox="0 0 879 835" width="879px" zoomAndPan="magnify"><defs/><g><!--cluster proc1--><g id="cluster_proc1"><polygon fill="none" points="16,16,26,6,427,6,427,770.5,417,780.5,16,780.5,16,16" style="stroke:#181818;stroke-width:1.0;"/><line style="stroke:#181818;stroke-width:1.0;" x1="417" x2="427" y1="16" y2="6"/><line style="stroke:#181818;stroke-width:1.0;" x1="16" x2="417" y1="16" y2="16"/><line style="stroke:#181818;stroke-width:1.0;" x1="417" x2="417" y1="16" y2="780.5"/><text fill="#000000" font-family="sans-serif" font-size="14" font-weight="bold" lengthAdjust="spacing" textLength="121" x="157" y="31.9951">Parent Process</text><text fill="#000000" font-family="sans-serif" font-size="14" font-weight="bold" lengthAdjust="spacing" textLength="82" x="176.5" y="48.292">Program 1</text></g><!--cluster user1--><g id="cluster_user1"><rect fill="none" height="162" rx="2.5" ry="2.5" style="stroke:#181818;stroke-width:1.0;" width="289" x="71" y="70"/><path d="M171,70 L171,79.2969 L161,89.2969 L71,89.2969 " fill="none" style="stroke:#181818;stroke-width:1.0;"/><text fill="#000000" font-family="sans-serif" font-size="14" font-weight="bold" lengthAdjust="spacing" textLength="90" x="74" y="83.9951">User Space</text></g><!--cluster kernel1--><g id="cluster_kernel1"><rect fill="none" height="420" rx="2.5" ry="2.5" style="stroke:#181818;stroke-width:1.0;" width="363" x="40" y="336.5"/><path d="M102,336.5 L102,345.7969 L92,355.7969 L40,355.7969 " fill="none" style="stroke:#181818;stroke-width:1.0;"/><text fill="#000000" font-family="sans-serif" font-size="14" font-weight="bold" lengthAdjust="spacing" textLength="52" x="43" y="350.4951">Kernel</text></g><!--cluster proc2--><g id="cluster_proc2"><polygon fill="none" points="459,283,469,273,862,273,862,778.5,852,788.5,459,788.5,459,283" style="stroke:#181818;stroke-width:1.0;"/><line style="stroke:#181818;stroke-width:1.0;" x1="852" x2="862" y1="283" y2="273"/><line style="stroke:#181818;stroke-width:1.0;" x1="459" x2="852" y1="283" y2="283"/><line style="stroke:#181818;stroke-width:1.0;" x1="852" x2="852" y1="283" y2="788.5"/><text fill="#000000" font-family="sans-serif" font-size="14" font-weight="bold" lengthAdjust="spacing" textLength="108" x="602.5" y="298.9951">Child Process</text><text fill="#000000" font-family="sans-serif" font-size="14" font-weight="bold" lengthAdjust="spacing" textLength="82" x="615.5" y="315.292">Program 1</text></g><!--cluster user2--><g id="cluster_user2"><rect fill="none" height="162" rx="2.5" ry="2.5" style="stroke:#181818;stroke-width:1.0;" width="289" x="510" y="345"/><path d="M610,345 L610,354.2969 L600,364.2969 L510,364.2969 " fill="none" style="stroke:#181818;stroke-width:1.0;"/><text fill="#000000" font-family="sans-serif" font-size="14" font-weight="bold" lengthAdjust="spacing" textLength="90" x="513" y="358.9951">User Space</text></g><!--cluster kernel2--><g id="cluster_kernel2"><rect fill="none" height="210" rx="2.5" ry="2.5" style="stroke:#181818;stroke-width:1.0;" width="331" x="499" y="546.5"/><path d="M561,546.5 L561,555.7969 L551,565.7969 L499,565.7969 " fill="none" style="stroke:#181818;stroke-width:1.0;"/><text fill="#000000" font-family="sans-serif" font-size="14" font-weight="bold" lengthAdjust="spacing" textLength="52" x="502" y="560.4951">Kernel</text></g><!--entity code1--><g id="elem_code1"><rect fill="#F1F1F1" height="46.2969" rx="2.5" ry="2.5" style="stroke:#181818;stroke-width:0.5;" width="90" x="254" y="137.5"/><path d="M284,137.5 L284,142.5 L277,149.5 L254,149.5 " fill="none" style="stroke:#181818;stroke-width:0.5;"/><text fill="#000000" font-family="sans-serif" font-size="14" lengthAdjust="spacing" textLength="50" x="269" y="170.4951">Code 1</text></g><!--entity data1--><g id="elem_data1"><rect fill="#F1F1F1" height="111.4844" rx="2.5" ry="2.5" style="stroke:#181818;stroke-width:0.5;" width="131" x="87.5" y="105"/><path d="M131.1667,105 L131.1667,110 L124.1667,117 L87.5,117 " fill="none" style="stroke:#181818;stroke-width:0.5;"/><text fill="#000000" font-family="sans-serif" font-size="14" lengthAdjust="spacing" textLength="45" x="102.5" y="137.9951">Data 1</text><text fill="#000000" font-family="sans-serif" font-size="14" lengthAdjust="spacing" textLength="4" x="102.5" y="154.292">&#160;</text><text fill="#000000" font-family="sans-serif" font-size="14" lengthAdjust="spacing" textLength="91" x="102.5" y="170.5889">- Uninitialized</text><text fill="#000000" font-family="sans-serif" font-size="14" lengthAdjust="spacing" textLength="72" x="102.5" y="186.8857">- Initialized</text><text fill="#000000" font-family="sans-serif" font-size="14" lengthAdjust="spacing" textLength="45" x="102.5" y="203.1826">- Heap</text></g><!--entity thread11--><g id="elem_thread11"><rect fill="#F1F1F1" height="127.7813" rx="2.5" ry="2.5" style="stroke:#181818;stroke-width:0.5;" width="148" x="239" y="371.5"/><path d="M288.3333,371.5 L288.3333,376.5 L281.3333,383.5 L239,383.5 " fill="none" style="stroke:#181818;stroke-width:0.5;"/><text fill="#000000" font-family="sans-serif" font-size="14" lengthAdjust="spacing" textLength="108" x="254" y="404.4951">Task - Thread 1</text><text fill="#000000" font-family="sans-serif" font-size="14" lengthAdjust="spacing" textLength="42" x="254" y="420.792">(Main)</text><text fill="#000000" font-family="sans-serif" font-size="14" lengthAdjust="spacing" textLength="4" x="254" y="437.0889">&#160;</text><text fill="#000000" font-family="sans-serif" font-size="14" lengthAdjust="spacing" textLength="83" x="254" y="453.3857">- Process ID</text><text fill="#000000" font-family="sans-serif" font-size="14" lengthAdjust="spacing" textLength="28" x="254" y="469.6826">- PC</text><text fill="#000000" font-family="sans-serif" font-size="14" lengthAdjust="spacing" textLength="47" x="254" y="485.9795">- Stack</text></g><!--entity thread12--><g id="elem_thread12"><rect fill="#F1F1F1" height="62.5938" rx="2.5" ry="2.5" style="stroke:#181818;stroke-width:0.5;" width="148" x="56" y="404"/><path d="M105.3333,404 L105.3333,409 L98.3333,416 L56,416 " fill="none" style="stroke:#181818;stroke-width:0.5;"/><text fill="#000000" font-family="sans-serif" font-size="14" lengthAdjust="spacing" textLength="108" x="71" y="436.9951">Task - Thread 2</text><text fill="#000000" font-family="sans-serif" font-size="14" lengthAdjust="spacing" textLength="72" x="71" y="453.292">(Worker 1)</text></g><!--entity files1--><g id="elem_files1"><path d="M255,591.5 C255,581.5 313,581.5 313,581.5 C313,581.5 371,581.5 371,591.5 L371,730.875 C371,740.875 313,740.875 313,740.875 C313,740.875 255,740.875 255,730.875 L255,591.5 " fill="#F1F1F1" style="stroke:#181818;stroke-width:0.5;"/><path d="M255,591.5 C255,601.5 313,601.5 313,601.5 C313,601.5 371,601.5 371,591.5 " fill="none" style="stroke:#181818;stroke-width:0.5;"/><text fill="#000000" font-family="sans-serif" font-size="14" lengthAdjust="spacing" textLength="83" x="265" y="618.4951">File Handles</text><text fill="#000000" font-family="sans-serif" font-size="14" lengthAdjust="spacing" textLength="4" x="265" y="634.792">&#160;</text><text fill="#000000" font-family="sans-serif" font-size="14" lengthAdjust="spacing" textLength="96" x="265" y="651.0889">- stdin, stdout</text><text fill="#000000" font-family="sans-serif" font-size="14" lengthAdjust="spacing" textLength="41" x="277" y="667.3857">stderr</text><text fill="#000000" font-family="sans-serif" font-size="14" lengthAdjust="spacing" textLength="40" x="265" y="683.6826">- Files</text><text fill="#000000" font-family="sans-serif" font-size="14" lengthAdjust="spacing" textLength="65" x="265" y="699.9795">- Sockets</text><text fill="#000000" font-family="sans-serif" font-size="14" lengthAdjust="spacing" textLength="47" x="265" y="716.2764">- Pipes</text><text fill="#000000" font-family="sans-serif" font-size="14" lengthAdjust="spacing" textLength="21" x="265" y="732.5732">- ...</text></g><!--entity code2--><g id="elem_code2"><rect fill="#F1F1F1" height="46.2969" rx="2.5" ry="2.5" style="stroke:#181818;stroke-width:0.5;" width="90" x="526" y="412.5"/><path d="M556,412.5 L556,417.5 L549,424.5 L526,424.5 " fill="none" style="stroke:#181818;stroke-width:0.5;"/><text fill="#000000" font-family="sans-serif" font-size="14" lengthAdjust="spacing" textLength="50" x="541" y="445.4951">Code 1</text></g><!--entity data2--><g id="elem_data2"><rect fill="#F1F1F1" height="111.4844" rx="2.5" ry="2.5" style="stroke:#181818;stroke-width:0.5;" width="131" x="651.5" y="380"/><path d="M695.1667,380 L695.1667,385 L688.1667,392 L651.5,392 " fill="none" style="stroke:#181818;stroke-width:0.5;"/><text fill="#000000" font-family="sans-serif" font-size="14" lengthAdjust="spacing" textLength="45" x="666.5" y="412.9951">Data 1</text><text fill="#000000" font-family="sans-serif" font-size="14" lengthAdjust="spacing" textLength="4" x="666.5" y="429.292">&#160;</text><text fill="#000000" font-family="sans-serif" font-size="14" lengthAdjust="spacing" textLength="91" x="666.5" y="445.5889">- Uninitialized</text><text fill="#000000" font-family="sans-serif" font-size="14" lengthAdjust="spacing" textLength="72" x="666.5" y="461.8857">- Initialized</text><text fill="#000000" font-family="sans-serif" font-size="14" lengthAdjust="spacing" textLength="45" x="666.5" y="478.1826">- Heap</text></g><!--entity thread21--><g id="elem_thread21"><rect fill="#F1F1F1" height="127.7813" rx="2.5" ry="2.5" style="stroke:#181818;stroke-width:0.5;" width="148" x="515" y="597"/><path d="M564.3333,597 L564.3333,602 L557.3333,609 L515,609 " fill="none" style="stroke:#181818;stroke-width:0.5;"/><text fill="#000000" font-family="sans-serif" font-size="14" lengthAdjust="spacing" textLength="108" x="530" y="629.9951">Task - Thread 1</text><text fill="#000000" font-family="sans-serif" font-size="14" lengthAdjust="spacing" textLength="42" x="530" y="646.292">(Main)</text><text fill="#000000" font-family="sans-serif" font-size="14" lengthAdjust="spacing" textLength="4" x="530" y="662.5889">&#160;</text><text fill="#000000" font-family="sans-serif" font-size="14" lengthAdjust="spacing" textLength="83" x="530" y="678.8857">- Process ID</text><text fill="#000000" font-family="sans-serif" font-size="14" lengthAdjust="spacing" textLength="28" x="530" y="695.1826">- PC</text><text fill="#000000" font-family="sans-serif" font-size="14" lengthAdjust="spacing" textLength="47" x="530" y="711.4795">- Stack</text></g><!--entity files2--><g id="elem_files2"><path d="M698,591.5 C698,581.5 756,581.5 756,581.5 C756,581.5 814,581.5 814,591.5 L814,730.875 C814,740.875 756,740.875 756,740.875 C756,740.875 698,740.875 698,730.875 L698,591.5 " fill="#F1F1F1" style="stroke:#181818;stroke-width:0.5;"/><path d="M698,591.5 C698,601.5 756,601.5 756,601.5 C756,601.5 814,601.5 814,591.5 " fill="none" style="stroke:#181818;stroke-width:0.5;"/><text fill="#000000" font-family="sans-serif" font-size="14" lengthAdjust="spacing" textLength="83" x="708" y="618.4951">File Handles</text><text fill="#000000" font-family="sans-serif" font-size="14" lengthAdjust="spacing" textLength="4" x="708" y="634.792">&#160;</text><text fill="#000000" font-family="sans-serif" font-size="14" lengthAdjust="spacing" textLength="96" x="708" y="651.0889">- stdin, stdout</text><text fill="#000000" font-family="sans-serif" font-size="14" lengthAdjust="spacing" textLength="41" x="720" y="667.3857">stderr</text><text fill="#000000" font-family="sans-serif" font-size="14" lengthAdjust="spacing" textLength="40" x="708" y="683.6826">- Files</text><text fill="#000000" font-family="sans-serif" font-size="14" lengthAdjust="spacing" textLength="65" x="708" y="699.9795">- Sockets</text><text fill="#000000" font-family="sans-serif" font-size="14" lengthAdjust="spacing" textLength="47" x="708" y="716.2764">- Pipes</text><text fill="#000000" font-family="sans-serif" font-size="14" lengthAdjust="spacing" textLength="21" x="708" y="732.5732">- ...</text></g><!--link data1 to code1--><!--link thread12 to thread11--><!--link thread11 to files1--><!--link code1 to thread11--><g id="link_code1_thread11"><path d="M300.15,183.84 C302.22,224.34 306.3726,305.2279 309.4526,365.2579 " fill="none" id="code1-to-thread11" style="stroke:#181818;stroke-width:1.0;"/><polygon fill="#181818" points="309.76,371.25,313.2936,362.0569,309.5038,366.2566,305.3041,362.4668,309.76,371.25" style="stroke:#181818;stroke-width:1.0;"/></g><!--link code1 to thread12--><g id="link_code1_thread12"><path d="M281.42,183.55 C268.83,199.32 251.43,221.02 236,240 C229.83,247.59 227.39,248.83 222,257 C189.68,305.95 162.4226,362.1677 145.9426,398.4277 " fill="none" id="code1-to-thread12" style="stroke:#181818;stroke-width:1.0;"/><polygon fill="#181818" points="143.46,403.89,150.8254,397.3516,145.5288,399.3381,143.5424,394.0415,143.46,403.89" style="stroke:#181818;stroke-width:1.0;"/></g><!--link thread11 to data1--><g id="link_thread11_data1"><path d="M280.8307,365.8168 C264.0307,331.3568 244.52,293.76 222,257 C213.66,243.4 207.4892,234.1011 198.0892,220.9511 " fill="none" id="thread11-data1" style="stroke:#181818;stroke-width:1.0;"/><polygon fill="#181818" points="283.46,371.21,283.1115,361.3673,281.2689,366.7157,275.9206,364.8731,283.46,371.21" style="stroke:#181818;stroke-width:1.0;"/><polygon fill="#181818" points="194.6,216.07,196.5797,225.7178,197.5077,220.1376,203.0879,221.0656,194.6,216.07" style="stroke:#181818;stroke-width:1.0;"/></g><!--link thread12 to data1--><g id="link_thread12_data1"><path d="M133.0936,397.7712 C136.9236,352.3012 143.1569,278.3989 147.8969,222.0689 " fill="none" id="thread12-data1" style="stroke:#181818;stroke-width:1.0;"/><polygon fill="#181818" points="132.59,403.75,137.3313,395.1175,133.0097,398.7676,129.3595,394.446,132.59,403.75" style="stroke:#181818;stroke-width:1.0;"/><polygon fill="#181818" points="148.4,216.09,143.6594,224.7229,147.9807,221.0724,151.6313,225.3937,148.4,216.09" style="stroke:#181818;stroke-width:1.0;"/></g><!--link code2 to data2--><!--link thread21 to files2--><!--link code2 to thread21--><g id="link_code2_thread21"><path d="M572.79,458.75 C575.36,490.66 579.7074,544.6794 583.4374,590.8994 " fill="none" id="code2-to-thread21" style="stroke:#181818;stroke-width:1.0;"/><polygon fill="#181818" points="583.92,596.88,587.1831,587.5874,583.5178,591.8962,579.209,588.2309,583.92,596.88" style="stroke:#181818;stroke-width:1.0;"/></g><!--link thread21 to data2--><g id="link_thread21_data2"><path d="M628.1819,591.5834 C647.2419,558.3034 664.4282,528.2966 682.7082,496.3766 " fill="none" id="thread21-data2" style="stroke:#181818;stroke-width:1.0;"/><polygon fill="#181818" points="625.2,596.79,633.1439,590.9681,627.6849,592.4512,626.2018,586.9922,625.2,596.79" style="stroke:#181818;stroke-width:1.0;"/><polygon fill="#181818" points="685.69,491.17,677.7463,496.9921,683.2052,495.5089,684.6885,500.9678,685.69,491.17" style="stroke:#181818;stroke-width:1.0;"/></g><!--link thread11 to proc2--><g id="link_thread11_proc2"><path d="M387.29,435.5 C405.75,435.5 424.4175,435.5 439.0425,435.5 C446.355,435.5 452.6569,435.5 457.4169,435.5 C457.7144,435.5 458.0059,435.5 458.2912,435.5 C458.4338,435.5 458.575,435.5 458.7145,435.5 C458.7843,435.5 452.8537,435.5 452.9227,435.5 " fill="none" id="thread11-to-proc2" style="stroke:#181818;stroke-width:1.0;"/><polygon fill="#181818" points="458.9227,435.5,449.9227,431.5,453.9227,435.5,449.9227,439.5,458.9227,435.5" style="stroke:#181818;stroke-width:1.0;"/><text fill="#000000" font-family="sans-serif" font-size="13" lengthAdjust="spacing" textLength="34" x="409.82" y="451.5669">fork()</text></g><text fill="#888888" font-family="sans-serif" font-size="10" font-weight="bold" lengthAdjust="spacing" textLength="84" x="375.5" y="813.7822">FileExecuting()</text><text fill="#888888" font-family="sans-serif" font-size="10" lengthAdjust="spacing" textLength="27" x="462.5" y="813.7822">fork()</text><text fill="#888888" font-family="sans-serif" font-size="10" lengthAdjust="spacing" textLength="167" x="349" y="825.4229">(C) DSP-Crowd Electronics GmbH</text><!--SRC=[lLDDRzim3BtxLn3P9Gxg0D9n67fnsgKO2WH8YnsM7HIBJWIxb24fwB2X_ttwI1nrGzjBKHziYkGZwSSdsoaQX14Fi1LDjpFwGBBMlJRmgOrFKP2M29ELC4WELaOtQEs6lB4BC3O1OM7mRWP_2e3MEttwlKK3wq4q6EC7VqpnCQCEPHEwyIRBOmlX1B0DRQY2UrAad1Az-eqoE6wU7vSeXbX5UX0hOfbeGlLZhwH4-ZasU2hE4tv3GzX7P1VDV-Qx4xQ32kxs1eKCmqnlXQ8o3NMa0MuMyLI7zzfv1cCz5p6ClLoE-tBVjV6DWPKvXe_pRuNri6lL8om5oHvjQcsTL7GHFlhWDkIplOd6X5Z8jd4MtNJeehbIG_BDv_FOgGr9Hw9ENJEkdWr_EfpZrGaVkOp4GbLTvh3_dE6dnafVGY3jAkkVUPzEagltgfUlAOw_eJZ-gkBukoYE9o9ZmOp557f3SVoT5SVP1wad_5cc3vxVjJ5X50ZFjC3FM-UP5dZO-bbibyVrVeP9ws_9j9mKHQkrynkUpSAOLx-mEJX5ksavcq7AyNpL9IpMgwes-b72LO-DCvfKO-7hmtPP_0K0]--></g></svg>