<?xml version="1.0" encoding="us-ascii" standalone="no"?><svg xmlns="http://www.w3.org/2000/svg" xmlns:xlink="http://www.w3.org/1999/xlink" contentStyleType="text/css" height="535px" preserveAspectRatio="none" style="width:451px;height:535px;background:#FFFFFF;" version="1.1" viewBox="0 0 451 535" width="451px" zoomAndPan="magnify"><defs/><g><!--entity srcClosed--><g id="elem_srcClosed"><path d="M6,73 C6,63 44.5,63 44.5,63 C44.5,63 83,63 83,73 L83,114.5938 C83,124.5938 44.5,124.5938 44.5,124.5938 C44.5,124.5938 6,124.5938 6,114.5938 L6,73 " fill="#F1F1F1" style="stroke:#181818;stroke-width:0.5;"/><path d="M6,73 C6,83 44.5,83 44.5,83 C44.5,83 83,83 83,73 " fill="none" style="stroke:#181818;stroke-width:0.5;"/><text fill="#000000" font-family="sans-serif" font-size="14" font-weight="bold" lengthAdjust="spacing" textLength="54" x="16" y="99.9951">Closed</text><text fill="#000000" font-family="sans-serif" font-size="14" lengthAdjust="spacing" textLength="57" x="16" y="116.292">(default)</text></g><!--entity srcManual--><g id="elem_srcManual"><path d="M118,24.5 C118,14.5 187.5,14.5 187.5,14.5 C187.5,14.5 257,14.5 257,24.5 L257,163.875 C257,173.875 187.5,173.875 187.5,173.875 C187.5,173.875 118,173.875 118,163.875 L118,24.5 " fill="#F1F1F1" style="stroke:#181818;stroke-width:0.5;"/><path d="M118,24.5 C118,34.5 187.5,34.5 187.5,34.5 C187.5,34.5 257,34.5 257,24.5 " fill="none" style="stroke:#181818;stroke-width:0.5;"/><text fill="#000000" font-family="sans-serif" font-size="14" font-weight="bold" lengthAdjust="spacing" textLength="55" x="128" y="51.4951">Manual</text><text fill="#000000" font-family="sans-serif" font-size="14" lengthAdjust="spacing" textLength="96" x="128" y="67.792">by Parenting()</text><text fill="#000000" font-family="sans-serif" font-size="14" lengthAdjust="spacing" textLength="4" x="128" y="84.0889">&#160;</text><text fill="#000000" font-family="sans-serif" font-size="14" lengthAdjust="spacing" textLength="39" x="128" y="100.3857">Using</text><text fill="#000000" font-family="sans-serif" font-size="14" lengthAdjust="spacing" textLength="5" x="128" y="116.6826">-</text><text fill="#000000" font-family="sans-serif" font-size="14" font-weight="bold" lengthAdjust="spacing" textLength="51" x="137" y="116.6826">send()</text><text fill="#000000" font-family="sans-serif" font-size="14" lengthAdjust="spacing" textLength="4" x="128" y="132.9795">&#160;</text><text fill="#000000" font-family="sans-serif" font-size="14" lengthAdjust="spacing" textLength="104" x="128" y="149.2764">Note: Requires</text><text fill="#000000" font-family="sans-serif" font-size="14" font-weight="bold" lengthAdjust="spacing" textLength="119" x="128" y="165.5732">sourceEnable()</text></g><!--entity srcAuto--><g id="elem_srcAuto"><path d="M292.5,16 C292.5,6 363.5,6 363.5,6 C363.5,6 434.5,6 434.5,16 L434.5,171.6719 C434.5,181.6719 363.5,181.6719 363.5,181.6719 C363.5,181.6719 292.5,181.6719 292.5,171.6719 L292.5,16 " fill="#F1F1F1" style="stroke:#181818;stroke-width:0.5;"/><path d="M292.5,16 C292.5,26 363.5,26 363.5,26 C363.5,26 434.5,26 434.5,16 " fill="none" style="stroke:#181818;stroke-width:0.5;"/><text fill="#000000" font-family="sans-serif" font-size="14" font-weight="bold" lengthAdjust="spacing" textLength="79" x="302.5" y="42.9951">Automatic</text><text fill="#000000" font-family="sans-serif" font-size="14" lengthAdjust="spacing" textLength="121" x="302.5" y="59.292">by FileExecuting()</text><text fill="#000000" font-family="sans-serif" font-size="14" lengthAdjust="spacing" textLength="4" x="302.5" y="75.5889">&#160;</text><text fill="#000000" font-family="sans-serif" font-size="14" lengthAdjust="spacing" textLength="39" x="302.5" y="91.8857">Using</text><text fill="#000000" font-family="sans-serif" font-size="14" font-weight="bold" lengthAdjust="spacing" textLength="44" x="345.5" y="91.8857">(XOR)</text><text fill="#000000" font-family="sans-serif" font-size="14" lengthAdjust="spacing" textLength="122" x="302.5" y="108.1826">- const char *, len</text><text fill="#000000" font-family="sans-serif" font-size="14" lengthAdjust="spacing" textLength="48" x="302.5" y="124.4795">- string</text><text fill="#000000" font-family="sans-serif" font-size="14" lengthAdjust="spacing" textLength="43" x="302.5" y="140.7764">- int fd</text><text fill="#000000" font-family="sans-serif" font-size="14" lengthAdjust="spacing" textLength="98" x="302.5" y="157.0732">- Transfering *</text><text fill="#000000" font-family="sans-serif" font-size="14" lengthAdjust="spacing" textLength="63" x="302.5" y="173.3701">- Pipe&lt;&gt;</text></g><!--entity srcSel--><g id="elem_srcSel"><rect fill="#F1F1F1" height="46.2969" rx="2.5" ry="2.5" style="stroke:#181818;stroke-width:0.5;" width="183" x="96" y="242"/><rect fill="#F1F1F1" height="10" style="stroke:#181818;stroke-width:0.5;" width="15" x="259" y="247"/><rect fill="#F1F1F1" height="2" style="stroke:#181818;stroke-width:0.5;" width="4" x="257" y="249"/><rect fill="#F1F1F1" height="2" style="stroke:#181818;stroke-width:0.5;" width="4" x="257" y="253"/><text fill="#000000" font-family="sans-serif" font-size="14" lengthAdjust="spacing" textLength="95" x="111" y="274.9951">Source select</text><text fill="#000000" font-family="sans-serif" font-size="14" font-weight="bold" lengthAdjust="spacing" textLength="44" x="210" y="274.9951">(XOR)</text></g><!--entity stdin--><g id="elem_stdin"><path d="M158,358 C158,348 187.5,348 187.5,348 C187.5,348 217,348 217,358 L217,383.2969 C217,393.2969 187.5,393.2969 187.5,393.2969 C187.5,393.2969 158,393.2969 158,383.2969 L158,358 " fill="#F1F1F1" style="stroke:#181818;stroke-width:0.5;"/><path d="M158,358 C158,368 187.5,368 187.5,368 C187.5,368 217,368 217,358 " fill="none" style="stroke:#181818;stroke-width:0.5;"/><text fill="#000000" font-family="sans-serif" font-size="14" font-weight="bold" lengthAdjust="spacing" textLength="39" x="168" y="384.9951">stdin</text></g><!--entity chld--><g id="elem_chld"><rect fill="#F1F1F1" height="46.2969" rx="2.5" ry="2.5" style="stroke:#181818;stroke-width:0.5;" width="141" x="117" y="453"/><rect fill="#F1F1F1" height="10" style="stroke:#181818;stroke-width:0.5;" width="15" x="238" y="458"/><rect fill="#F1F1F1" height="2" style="stroke:#181818;stroke-width:0.5;" width="4" x="236" y="460"/><rect fill="#F1F1F1" height="2" style="stroke:#181818;stroke-width:0.5;" width="4" x="236" y="464"/><text fill="#000000" font-family="sans-serif" font-size="14" lengthAdjust="spacing" textLength="101" x="132" y="485.9951">FileExecuting()</text></g><!--link srcClosed to srcSel--><g id="link_srcClosed_srcSel"><path d="M61.48,125.24 C71.8,142.57 85.8,164.32 100.5,182 C118.81,204.03 138.1275,222.2085 156.2275,237.9085 " fill="none" id="srcClosed-to-srcSel" style="stroke:#181818;stroke-width:1.0;"/><polygon fill="#181818" points="160.76,241.84,156.5823,232.9211,156.9829,238.5638,151.3403,238.9644,160.76,241.84" style="stroke:#181818;stroke-width:1.0;"/></g><!--link srcManual to srcSel--><g id="link_srcManual_srcSel"><path d="M187.5,173.56 C187.5,198.56 187.5,218.25 187.5,235.84 " fill="none" id="srcManual-to-srcSel" style="stroke:#181818;stroke-width:1.0;"/><polygon fill="#181818" points="187.5,241.84,191.5,232.84,187.5,236.84,183.5,232.84,187.5,241.84" style="stroke:#181818;stroke-width:1.0;"/></g><!--link srcAuto to srcSel--><g id="link_srcAuto_srcSel"><path d="M292.2,164.92 C286.23,170.71 280.27,176.46 274.5,182 C253.24,202.41 233.1701,221.3094 215.6201,237.7394 " fill="none" id="srcAuto-to-srcSel" style="stroke:#181818;stroke-width:1.0;"/><polygon fill="#181818" points="211.24,241.84,220.5439,238.6092,214.8901,238.4229,215.0764,232.7691,211.24,241.84" style="stroke:#181818;stroke-width:1.0;"/></g><!--link srcSel to stdin--><g id="link_srcSel_stdin"><path d="M187.5,288.2 C187.5,305.79 187.5,324.21 187.5,341.69 " fill="none" id="srcSel-to-stdin" style="stroke:#181818;stroke-width:1.0;"/><polygon fill="#181818" points="187.5,347.69,191.5,338.69,187.5,342.69,183.5,338.69,187.5,347.69" style="stroke:#181818;stroke-width:1.0;"/></g><!--link stdin to chld--><g id="link_stdin_chld"><path d="M187.5,393.2 C187.5,410.74 187.5,429.34 187.5,446.98 " fill="none" id="stdin-to-chld" style="stroke:#181818;stroke-width:1.0;"/><polygon fill="#181818" points="187.5,452.98,191.5,443.98,187.5,447.98,183.5,443.98,187.5,452.98" style="stroke:#181818;stroke-width:1.0;"/></g><text fill="#888888" font-family="sans-serif" font-size="10" font-weight="bold" lengthAdjust="spacing" textLength="84" x="114.25" y="513.5791">FileExecuting()</text><text fill="#888888" font-family="sans-serif" font-size="10" lengthAdjust="spacing" textLength="122" x="201.25" y="513.5791">Source selection for stdin</text><text fill="#888888" font-family="sans-serif" font-size="10" lengthAdjust="spacing" textLength="167" x="135.25" y="525.2197">(C) DSP-Crowd Electronics GmbH</text><!--SRC=[NLB1JeGm4Btp5PFr0etyW36R64Izg9jTJJnmAUsmssoPhcs9-lUsPLa53Z2yURptPgWxAZfnotjekJZkhHb8LaOR2rTTkh9CSizRxX1MZ5NQE9ICDPHBxFYWVR42xi1PCRPcx6TE0zUHtVx0XbiahsYV5mqrzEv2sL09Z3aacHUHrj2ByNW3M_mSb4NNKEYQmGgiYRSQ8slo6yLdVdU3DpttIfmj7vJ6-Xl5iB0Ddld7wpPPbY0CEG_Ym2smQz184NJUdlCfyj39MBrPJgv3cnGYi54dl5rFWQ9x9an_CXG6XTKk1GU76eN_ivpeEvo7Trugcjgn_g-rc2IHn47BBBji7ifoFUbUrhC0OyG551uZaYpJFRsFwfq9_oFiXIq2C0QpyPGXwCAXIT-7mr4LSB_Rb9KrNnBgoB26b73msBTFsIy0]--></g></svg>