<?xml version="1.0" encoding="us-ascii" standalone="no"?><svg xmlns="http://www.w3.org/2000/svg" xmlns:xlink="http://www.w3.org/1999/xlink" contentStyleType="text/css" height="732px" preserveAspectRatio="none" style="width:633px;height:732px;background:#FFFFFF;" version="1.1" viewBox="0 0 633 732" width="633px" zoomAndPan="magnify"><defs/><g><!--entity chld--><g id="elem_chld"><rect fill="#F1F1F1" height="46.2969" rx="2.5" ry="2.5" style="stroke:#181818;stroke-width:0.5;" width="141" x="225" y="7"/><rect fill="#F1F1F1" height="10" style="stroke:#181818;stroke-width:0.5;" width="15" x="346" y="12"/><rect fill="#F1F1F1" height="2" style="stroke:#181818;stroke-width:0.5;" width="4" x="344" y="14"/><rect fill="#F1F1F1" height="2" style="stroke:#181818;stroke-width:0.5;" width="4" x="344" y="18"/><text fill="#000000" font-family="sans-serif" font-size="14" lengthAdjust="spacing" textLength="101" x="240" y="39.9951">FileExecuting()</text></g><!--entity stdout--><g id="elem_stdout"><path d="M208,123 C208,113 243.5,113 243.5,113 C243.5,113 279,113 279,123 L279,148.2969 C279,158.2969 243.5,158.2969 243.5,158.2969 C243.5,158.2969 208,158.2969 208,148.2969 L208,123 " fill="#F1F1F1" style="stroke:#181818;stroke-width:0.5;"/><path d="M208,123 C208,133 243.5,133 243.5,133 C243.5,133 279,133 279,123 " fill="none" style="stroke:#181818;stroke-width:0.5;"/><text fill="#000000" font-family="sans-serif" font-size="14" font-weight="bold" lengthAdjust="spacing" textLength="51" x="218" y="149.9951">stdout</text></g><!--entity stdout2--><g id="elem_stdout2"><path d="M189,260.5 C189,250.5 221.5,250.5 221.5,250.5 C221.5,250.5 254,250.5 254,260.5 L254,285.7969 C254,295.7969 221.5,295.7969 221.5,295.7969 C221.5,295.7969 189,295.7969 189,285.7969 L189,260.5 " fill="#F1F1F1" style="stroke:#181818;stroke-width:0.5;"/><path d="M189,260.5 C189,270.5 221.5,270.5 221.5,270.5 C221.5,270.5 254,270.5 254,260.5 " fill="none" style="stroke:#181818;stroke-width:0.5;"/><text fill="#000000" font-family="sans-serif" font-size="14" lengthAdjust="spacing" textLength="45" x="199" y="287.4951">stdout</text></g><!--entity stderr--><g id="elem_stderr"><path d="M325,123 C325,113 359.5,113 359.5,113 C359.5,113 394,113 394,123 L394,148.2969 C394,158.2969 359.5,158.2969 359.5,158.2969 C359.5,158.2969 325,158.2969 325,148.2969 L325,123 " fill="#F1F1F1" style="stroke:#181818;stroke-width:0.5;"/><path d="M325,123 C325,133 359.5,133 359.5,133 C359.5,133 394,133 394,123 " fill="none" style="stroke:#181818;stroke-width:0.5;"/><text fill="#000000" font-family="sans-serif" font-size="14" font-weight="bold" lengthAdjust="spacing" textLength="49" x="335" y="149.9951">stderr</text></g><!--entity sinkSelStdOut--><g id="elem_sinkSelStdOut"><rect fill="#F1F1F1" height="46.2969" rx="2.5" ry="2.5" style="stroke:#181818;stroke-width:0.5;" width="163" x="121" y="396"/><rect fill="#F1F1F1" height="10" style="stroke:#181818;stroke-width:0.5;" width="15" x="264" y="401"/><rect fill="#F1F1F1" height="2" style="stroke:#181818;stroke-width:0.5;" width="4" x="262" y="403"/><rect fill="#F1F1F1" height="2" style="stroke:#181818;stroke-width:0.5;" width="4" x="262" y="407"/><text fill="#000000" font-family="sans-serif" font-size="14" lengthAdjust="spacing" textLength="75" x="136" y="428.9951">Sink select</text><text fill="#000000" font-family="sans-serif" font-size="14" font-weight="bold" lengthAdjust="spacing" textLength="44" x="215" y="428.9951">(XOR)</text></g><!--entity sinkSelStdErr--><g id="elem_sinkSelStdErr"><rect fill="#F1F1F1" height="46.2969" rx="2.5" ry="2.5" style="stroke:#181818;stroke-width:0.5;" width="163" x="289" y="250"/><rect fill="#F1F1F1" height="10" style="stroke:#181818;stroke-width:0.5;" width="15" x="432" y="255"/><rect fill="#F1F1F1" height="2" style="stroke:#181818;stroke-width:0.5;" width="4" x="430" y="257"/><rect fill="#F1F1F1" height="2" style="stroke:#181818;stroke-width:0.5;" width="4" x="430" y="261"/><text fill="#000000" font-family="sans-serif" font-size="14" lengthAdjust="spacing" textLength="75" x="304" y="282.9951">Sink select</text><text fill="#000000" font-family="sans-serif" font-size="14" font-weight="bold" lengthAdjust="spacing" textLength="44" x="383" y="282.9951">(XOR)</text></g><!--entity sinkDiscard--><g id="elem_sinkDiscard"><path d="M6,561 C6,551 55.5,551 55.5,551 C55.5,551 105,551 105,561 L105,635.1875 C105,645.1875 55.5,645.1875 55.5,645.1875 C55.5,645.1875 6,645.1875 6,635.1875 L6,561 " fill="#F1F1F1" style="stroke:#181818;stroke-width:0.5;"/><path d="M6,561 C6,571 55.5,571 55.5,571 C55.5,571 105,571 105,561 " fill="none" style="stroke:#181818;stroke-width:0.5;"/><text fill="#000000" font-family="sans-serif" font-size="14" font-weight="bold" lengthAdjust="spacing" textLength="59" x="16" y="587.9951">Discard</text><text fill="#000000" font-family="sans-serif" font-size="14" lengthAdjust="spacing" textLength="79" x="16" y="604.292">by /dev/null</text><text fill="#000000" font-family="sans-serif" font-size="14" lengthAdjust="spacing" textLength="4" x="16" y="620.5889">&#160;</text><text fill="#000000" font-family="sans-serif" font-size="14" lengthAdjust="spacing" textLength="57" x="16" y="636.8857">(default)</text></g><!--entity sinkManual--><g id="elem_sinkManual"><path d="M140.5,528.5 C140.5,518.5 202.5,518.5 202.5,518.5 C202.5,518.5 264.5,518.5 264.5,528.5 L264.5,667.875 C264.5,677.875 202.5,677.875 202.5,677.875 C202.5,677.875 140.5,677.875 140.5,667.875 L140.5,528.5 " fill="#F1F1F1" style="stroke:#181818;stroke-width:0.5;"/><path d="M140.5,528.5 C140.5,538.5 202.5,538.5 202.5,538.5 C202.5,538.5 264.5,538.5 264.5,528.5 " fill="none" style="stroke:#181818;stroke-width:0.5;"/><text fill="#000000" font-family="sans-serif" font-size="14" font-weight="bold" lengthAdjust="spacing" textLength="55" x="150.5" y="555.4951">Manual</text><text fill="#000000" font-family="sans-serif" font-size="14" lengthAdjust="spacing" textLength="96" x="150.5" y="571.792">by Parenting()</text><text fill="#000000" font-family="sans-serif" font-size="14" lengthAdjust="spacing" textLength="4" x="150.5" y="588.0889">&#160;</text><text fill="#000000" font-family="sans-serif" font-size="14" lengthAdjust="spacing" textLength="39" x="150.5" y="604.3857">Using</text><text fill="#000000" font-family="sans-serif" font-size="14" lengthAdjust="spacing" textLength="5" x="150.5" y="620.6826">-</text><text fill="#000000" font-family="sans-serif" font-size="14" font-weight="bold" lengthAdjust="spacing" textLength="48" x="159.5" y="620.6826">read()</text><text fill="#000000" font-family="sans-serif" font-size="14" lengthAdjust="spacing" textLength="4" x="150.5" y="636.9795">&#160;</text><text fill="#000000" font-family="sans-serif" font-size="14" lengthAdjust="spacing" textLength="104" x="150.5" y="653.2764">Note: Requires</text><text fill="#000000" font-family="sans-serif" font-size="14" font-weight="bold" lengthAdjust="spacing" textLength="96" x="150.5" y="669.5732">sinkEnable()</text></g><!--entity sinkAuto--><g id="elem_sinkAuto"><path d="M299.5,520 C299.5,510 370.5,510 370.5,510 C370.5,510 441.5,510 441.5,520 L441.5,675.6719 C441.5,685.6719 370.5,685.6719 370.5,685.6719 C370.5,685.6719 299.5,685.6719 299.5,675.6719 L299.5,520 " fill="#F1F1F1" style="stroke:#181818;stroke-width:0.5;"/><path d="M299.5,520 C299.5,530 370.5,530 370.5,530 C370.5,530 441.5,530 441.5,520 " fill="none" style="stroke:#181818;stroke-width:0.5;"/><text fill="#000000" font-family="sans-serif" font-size="14" font-weight="bold" lengthAdjust="spacing" textLength="79" x="309.5" y="546.9951">Automatic</text><text fill="#000000" font-family="sans-serif" font-size="14" lengthAdjust="spacing" textLength="121" x="309.5" y="563.292">by FileExecuting()</text><text fill="#000000" font-family="sans-serif" font-size="14" lengthAdjust="spacing" textLength="4" x="309.5" y="579.5889">&#160;</text><text fill="#000000" font-family="sans-serif" font-size="14" lengthAdjust="spacing" textLength="39" x="309.5" y="595.8857">Using</text><text fill="#000000" font-family="sans-serif" font-size="14" font-weight="bold" lengthAdjust="spacing" textLength="34" x="352.5" y="595.8857">(OR)</text><text fill="#000000" font-family="sans-serif" font-size="14" lengthAdjust="spacing" textLength="122" x="309.5" y="612.1826">- const char *, len</text><text fill="#000000" font-family="sans-serif" font-size="14" lengthAdjust="spacing" textLength="48" x="309.5" y="628.4795">- string</text><text fill="#000000" font-family="sans-serif" font-size="14" lengthAdjust="spacing" textLength="43" x="309.5" y="644.7764">- int fd</text><text fill="#000000" font-family="sans-serif" font-size="14" lengthAdjust="spacing" textLength="98" x="309.5" y="661.0732">- Transfering *</text><text fill="#000000" font-family="sans-serif" font-size="14" lengthAdjust="spacing" textLength="63" x="309.5" y="677.3701">- Pipe&lt;&gt;</text></g><!--entity sinkComb--><g id="elem_sinkComb"><path d="M319.5,398 C319.5,388 390.5,388 390.5,388 C390.5,388 461.5,388 461.5,398 L461.5,439.5938 C461.5,449.5938 390.5,449.5938 390.5,449.5938 C390.5,449.5938 319.5,449.5938 319.5,439.5938 L319.5,398 " fill="#F1F1F1" style="stroke:#181818;stroke-width:0.5;"/><path d="M319.5,398 C319.5,408 390.5,408 390.5,408 C390.5,408 461.5,408 461.5,398 " fill="none" style="stroke:#181818;stroke-width:0.5;"/><text fill="#000000" font-family="sans-serif" font-size="14" lengthAdjust="spacing" textLength="122" x="329.5" y="424.9951">- Discard (default)</text><text fill="#000000" font-family="sans-serif" font-size="14" lengthAdjust="spacing" textLength="78" x="329.5" y="441.292">- Automatic</text></g><!--entity sinkManual2--><g id="elem_sinkManual2"><path d="M487,228 C487,218 551.5,218 551.5,218 C551.5,218 616,218 616,228 L616,318.4844 C616,328.4844 551.5,328.4844 551.5,328.4844 C551.5,328.4844 487,328.4844 487,318.4844 L487,228 " fill="#F1F1F1" style="stroke:#181818;stroke-width:0.5;"/><path d="M487,228 C487,238 551.5,238 551.5,238 C551.5,238 616,238 616,228 " fill="none" style="stroke:#181818;stroke-width:0.5;"/><text fill="#000000" font-family="sans-serif" font-size="14" font-weight="bold" lengthAdjust="spacing" textLength="55" x="497" y="254.9951">Manual</text><text fill="#000000" font-family="sans-serif" font-size="14" lengthAdjust="spacing" textLength="96" x="497" y="271.292">by Parenting()</text><text fill="#000000" font-family="sans-serif" font-size="14" lengthAdjust="spacing" textLength="4" x="497" y="287.5889">&#160;</text><text fill="#000000" font-family="sans-serif" font-size="14" lengthAdjust="spacing" textLength="39" x="497" y="303.8857">Using</text><text fill="#000000" font-family="sans-serif" font-size="14" lengthAdjust="spacing" textLength="5" x="497" y="320.1826">-</text><text fill="#000000" font-family="sans-serif" font-size="14" font-weight="bold" lengthAdjust="spacing" textLength="100" x="506" y="320.1826">stderrRead()</text></g><!--link chld to stdout--><g id="link_chld_stdout"><path d="M284.34,53.2 C275.51,70.79 265.9331,89.8484 257.1531,107.3284 " fill="none" id="chld-to-stdout" style="stroke:#181818;stroke-width:1.0;"/><polygon fill="#181818" points="254.46,112.69,262.0741,106.4429,256.7042,108.222,254.9252,102.8521,254.46,112.69" style="stroke:#181818;stroke-width:1.0;"/></g><!--link chld to stderr--><g id="link_chld_stderr"><path d="M309.23,53.2 C320.1,70.79 332.0442,90.107 342.8542,107.587 " fill="none" id="chld-to-stderr" style="stroke:#181818;stroke-width:1.0;"/><polygon fill="#181818" points="346.01,112.69,344.6783,102.9316,343.3802,108.4375,337.8743,107.1393,346.01,112.69" style="stroke:#181818;stroke-width:1.0;"/></g><!--link stdout to stdout2--><g id="link_stdout_stdout2"><path d="M239.97,158.27 C235.86,183.56 230.0913,219.0975 225.9913,244.3575 " fill="none" id="stdout-to-stdout2" style="stroke:#181818;stroke-width:1.0;"/><polygon fill="#181818" points="225.03,250.28,230.4203,242.0371,225.8311,245.3446,222.5236,240.7554,225.03,250.28" style="stroke:#181818;stroke-width:1.0;"/></g><!--link stdout2 to sinkSelStdOut--><g id="link_stdout2_sinkSelStdOut"><path d="M218.66,295.56 C215.09,322.55 209.815,362.5916 206.215,389.8716 " fill="none" id="stdout2-to-sinkSelStdOut" style="stroke:#181818;stroke-width:1.0;"/><polygon fill="#181818" points="205.43,395.82,210.5731,387.4207,206.0842,390.863,202.6419,386.374,205.43,395.82" style="stroke:#181818;stroke-width:1.0;"/></g><!--link stderr to sinkSelStdErr--><g id="link_stderr_sinkSelStdErr"><path d="M361.27,158.27 C363.31,183.41 366.1654,218.5496 368.2154,243.8496 " fill="none" id="stderr-to-sinkSelStdErr" style="stroke:#181818;stroke-width:1.0;"/><polygon fill="#181818" points="368.7,249.83,371.9601,240.5363,368.2962,244.8463,363.9862,241.1825,368.7,249.83" style="stroke:#181818;stroke-width:1.0;"/></g><!--reverse link stdout2 to sinkSelStdErr--><g id="link_stdout2_sinkSelStdErr"><path d="M260.09,273 C271.61,273 277.13,273 288.65,273 " fill="none" id="stdout2-backto-sinkSelStdErr" style="stroke:#181818;stroke-width:1.0;"/><polygon fill="#181818" points="254.09,273,263.09,277,259.09,273,263.09,269,254.09,273" style="stroke:#181818;stroke-width:1.0;"/></g><!--link sinkSelStdOut to sinkDiscard--><g id="link_sinkSelStdOut_sinkDiscard"><path d="M182,442.18 C165.57,460.17 142.1,486.33 122.5,510 C111.68,523.07 103.9484,532.8144 93.6784,546.1644 " fill="none" id="sinkSelStdOut-to-sinkDiscard" style="stroke:#181818;stroke-width:1.0;"/><polygon fill="#181818" points="90.02,550.92,98.6781,546.2255,93.0687,546.957,92.3372,541.3476,90.02,550.92" style="stroke:#181818;stroke-width:1.0;"/></g><!--link sinkSelStdOut to sinkManual--><g id="link_sinkSelStdOut_sinkManual"><path d="M202.5,442.06 C202.5,461.34 202.5,484.52 202.5,512.38 " fill="none" id="sinkSelStdOut-to-sinkManual" style="stroke:#181818;stroke-width:1.0;"/><polygon fill="#181818" points="202.5,518.38,206.5,509.38,202.5,513.38,198.5,509.38,202.5,518.38" style="stroke:#181818;stroke-width:1.0;"/></g><!--link sinkSelStdOut to sinkAuto--><g id="link_sinkSelStdOut_sinkAuto"><path d="M223.44,442.06 C242.52,462.17 267.7194,488.7082 295.1794,517.6382 " fill="none" id="sinkSelStdOut-to-sinkAuto" style="stroke:#181818;stroke-width:1.0;"/><polygon fill="#181818" points="299.31,521.99,296.0152,512.7086,295.8678,518.3635,290.2129,518.2161,299.31,521.99" style="stroke:#181818;stroke-width:1.0;"/></g><!--link sinkSelStdErr to sinkManual2--><g id="link_sinkSelStdErr_sinkManual2"><path d="M452.16,273 C463.67,273 469.19,273 480.7,273 " fill="none" id="sinkSelStdErr-to-sinkManual2" style="stroke:#181818;stroke-width:1.0;"/><polygon fill="#181818" points="486.7,273,477.7,269,481.7,273,477.7,277,486.7,273" style="stroke:#181818;stroke-width:1.0;"/></g><!--link sinkSelStdErr to sinkComb--><g id="link_sinkSelStdErr_sinkComb"><path d="M373.58,296.18 C376.99,320.72 381.6749,354.447 385.4749,381.817 " fill="none" id="sinkSelStdErr-to-sinkComb" style="stroke:#181818;stroke-width:1.0;"/><polygon fill="#181818" points="386.3,387.76,389.0243,378.2954,385.6124,382.8075,381.1003,379.3956,386.3,387.76" style="stroke:#181818;stroke-width:1.0;"/></g><text fill="#888888" font-family="sans-serif" font-size="10" font-weight="bold" lengthAdjust="spacing" textLength="84" x="189" y="710.9541">FileExecuting()</text><text fill="#888888" font-family="sans-serif" font-size="10" lengthAdjust="spacing" textLength="154" x="276" y="710.9541">Sink selection for stdout / stderr</text><text fill="#888888" font-family="sans-serif" font-size="10" lengthAdjust="spacing" textLength="167" x="226" y="722.5947">(C) DSP-Crowd Electronics GmbH</text><!--SRC=[dLDDhvim4BppArRf1QoYI1ohfoTLURIzj2zAMga7BWOlgHMpJctJZtzV6nngqBkqdF3Epkum7knLqeqRFa3Bk-l5w974GIjju5K_FLdMwU6c2Sd1xfrKMF_2RdIIBdcn0swX-wP49hZZBRS8EyQi4tfqZ4teV4ZmkP1WrPQCnlmb-qCgu2pf2XOLTWuOoxy-dufxhqVEgCvEFFjz_qYf_PPKnPEq7JU2iORQtx0N-6DFer8DDPGBxFceNB6CYCsh0HyvZLn5_f4RhsHoB4puuacNXaglnY0NUH7Q6lga7Rw14tuVfK7RaFV23w-9jmhpLF8yUxNkxUZqm9tiuiRDFIrRWm7JzuVrdIRh_FLn0-mrAAHGjCv4TTARrulmzjbmiZsQQK0e7EKD7nuNGM5x8gU4w0WiNWNIed7X7VJG_ezhSonEqRkDBvKFh4yabENZFNpfEUHfBYSTLInLSssLf9cp0UfbIWKFvHP8-GlndfANqNYdBuEJlwiTiA9LMp2YaxzPhtsm_1MpJIWOW-JNa9gWztzzz6OVlV9vFnJmT3wM1wD_2gX3hz4aEmllX_P3zWS0]--></g></svg>